<svg xmlns="http://www.w3.org/2000/svg" viewBox="0 0 64 64">
  <defs>
    <linearGradient id="body" x1="0" y1="0" x2="0" y2="1"><stop offset="0" stop-color="#5e5c64"/><stop offset="1" stop-color="#3d3846"/></linearGradient>
    <linearGradient id="screen" x1="0" y1="0" x2="0" y2="1"><stop offset="0" stop-color="#f6f5f4"/><stop offset="1" stop-color="#deddda"/></linearGradient>
  </defs>
  <rect x="9" y="5" width="46" height="56" rx="7" fill="#241f31" opacity=".35"/>
  <rect x="9" y="3" width="46" height="56" rx="7" fill="url(#body)"/>
  <rect x="9.5" y="3.5" width="45" height="55" rx="6.5" fill="none" stroke="#fff" stroke-opacity=".12"/>
  <rect x="14" y="8" width="36" height="13" rx="3" fill="url(#screen)"/>
  <text x="46.5" y="18.5" text-anchor="end" font-family="Ubuntu, Arial, sans-serif" font-weight="500" font-size="9.5" fill="#3d3846">42</text>
  <g font-family="Ubuntu, Arial, sans-serif" font-weight="700" font-size="7" text-anchor="middle">
    <rect x="14" y="25" width="8" height="7" rx="1.8" fill="#77767b"/><rect x="24" y="25" width="8" height="7" rx="1.8" fill="#77767b"/><rect x="34" y="25" width="8" height="7" rx="1.8" fill="#77767b"/>
    <rect x="44" y="25" width="6" height="7" rx="1.8" fill="#9a9996"/>
    <rect x="14" y="34.5" width="8" height="7" rx="1.8" fill="#77767b"/><rect x="24" y="34.5" width="8" height="7" rx="1.8" fill="#77767b"/><rect x="34" y="34.5" width="8" height="7" rx="1.8" fill="#77767b"/>
    <rect x="44" y="34.5" width="6" height="7" rx="1.8" fill="#9a9996"/>
    <rect x="14" y="44" width="8" height="7" rx="1.8" fill="#77767b"/><rect x="24" y="44" width="8" height="7" rx="1.8" fill="#77767b"/><rect x="34" y="44" width="8" height="7" rx="1.8" fill="#77767b"/>
    <rect x="44" y="44" width="6" height="7" rx="1.8" fill="#E95420"/>
    <path d="M45.5 46.6h3M45.5 48.4h3" stroke="#fff" stroke-width=".9" stroke-linecap="round"/>
    <path d="M46 28.5h2M47 27.5v2" stroke="#fff" stroke-width=".9" stroke-linecap="round"/>
    <path d="M46 38h2" stroke="#fff" stroke-width=".9" stroke-linecap="round"/>
  </g>
</svg>
